<svg id="Layer_1" data-name="Layer 1" xmlns="http://www.w3.org/2000/svg" viewBox="0 0 191.24 241.39"><defs><style>.cls-1,.cls-2,.cls-8{fill:#bb9084;}.cls-1,.cls-4,.cls-5,.cls-8{stroke:#262424;stroke-miterlimit:10;}.cls-1,.cls-4,.cls-5{stroke-width:2px;}.cls-3{fill:#262424;}.cls-4{fill:none;}.cls-5{fill:#282e60;}.cls-6{fill:#e7ad4a;}.cls-7{fill:#f5ec49;}.cls-8{stroke-width:4px;}.cls-9{fill:#fff;}.cls-10{fill:#9c7a52;}.cls-11{fill:#5aa59b;}</style></defs><title>betjent</title><path class="cls-1" d="M79.77,120.56c1-1-1.27-13-1.27-13L106,105.82s1.78,12.2,1,14.74"/><path class="cls-1" d="M107.16,117.77l5.41,1.52C108.5,132,94.26,130.48,94.26,130.48S81,132.26,75.2,119.55l4.67-3.09"/><path class="cls-2" d="M80,120.82a32.75,32.75,0,0,0-.13-5.86"/><path class="cls-3" d="M80.63,120.82A37,37,0,0,0,80.5,115c-.08-.79-1.33-.8-1.25,0a37,37,0,0,1,.13,5.86c0,.8,1.2.8,1.25,0Z"/><path class="cls-3" d="M107.85,121.33V116.5a.63.63,0,0,0-1.25,0v4.83a.63.63,0,0,0,1.25,0Z"/><path class="cls-1" d="M68.48,190.57l-2.56,24.19H58.25c-9.77-3.49-14.19-15.12-14.19-15.12L18,181.5C11,180.1,10.33,171,10.33,171c-8.83-9.09,12.8-23.93,12.8-23.93l17,11.39s-6.52,7.68-8.38,7.68c0,0,17.21,23.72,16.75,26.28,0,0,11.74-7.2,16.8-3.48S68.48,190.57,68.48,190.57Z"/><path class="cls-4" d="M20,162.89s9.68.44,11.7,3.26"/><path class="cls-1" d="M59.18,210.11s4.88,2.79,6.74,1.62"/><path class="cls-1" d="M62.55,192.66s4.07,1.63,5.23.93"/><path class="cls-1" d="M118.56,190.57l2.56,24.19h7.68c9.77-3.49,14.18-15.12,14.18-15.12L169,181.5c7-1.4,7.68-10.49,7.68-10.49,8.84-9.09-12.79-23.93-12.79-23.93l-17,11.39s6.51,7.68,8.37,7.68c0,0-17.21,23.72-16.74,26.28,0,0-11.75-7.2-16.81-3.48S118.56,190.57,118.56,190.57Z"/><path class="cls-4" d="M167,162.89s-9.68.44-11.7,3.26"/><path class="cls-1" d="M127.87,210.11s-4.89,2.79-6.75,1.62"/><path class="cls-1" d="M124.49,192.66s-4.07,1.63-5.23.93"/><path class="cls-5" d="M124,217.16c-31.53,18.81-61,0-61,0L65.28,189c-3.3-2.8-10.17-40.42-10.17-40.42l-18,17.54c-11.44-1.53-17-21.36-17-21.36,19.07-15,20.59-14.15,20.59-14.15,10.17-7.54,32.8-14.06,32.8-14.06l1.78,3s19.83,24.15,37.37-.26l1.27-1.4s25.16,5.72,26.69,7a141.15,141.15,0,0,1,25.93,19.58s.25,15.51-17,21.35l-17.54-16.52s-6.36,36.1-9.66,39.4Z"/><path d="M117.93,136.4a19.7,19.7,0,0,1,1.46,1.43c.5.6,1.09,1.13,1.62,1.7.2.21.19.24,0,.46a5.75,5.75,0,0,0-.88,1.25,4,4,0,0,0-.43,1.63c0,.1,0,.21-.07.3a.26.26,0,0,0,0,.18,8,8,0,0,0,.45,2,13.9,13.9,0,0,1,.91,2.09c.1.36.19.71.27,1.08a5.48,5.48,0,0,1,.07,1.34,4.92,4.92,0,0,1-.41,1.77,7.77,7.77,0,0,1-.62,1.22,7.56,7.56,0,0,1-1.74,1.74,8.14,8.14,0,0,1-1.71.82c-.17.07-.38-.05-.52.12a5.3,5.3,0,0,0-2.36,1.05,10,10,0,0,0-1.17,1.08c-.19.17-.26.19-.46,0a4.47,4.47,0,0,1-.44-.43,6,6,0,0,0-1.67-1.24,4.91,4.91,0,0,0-1.36-.49,6.2,6.2,0,0,1-2.69-1.17,6.67,6.67,0,0,1-1.1-1.15,5.69,5.69,0,0,1-.65-1,6.38,6.38,0,0,1-.59-1.84,5.89,5.89,0,0,1-.06-1.25,5.68,5.68,0,0,1,.47-2c.28-.66.59-1.31.88-2a2.41,2.41,0,0,0,.25-1,.72.72,0,0,1,.09-.49s0-.15,0-.23a5.91,5.91,0,0,0-.67-2.33,5,5,0,0,0-.73-1c-.17-.18-.17-.26,0-.43l2.79-2.88c.1-.1.22-.19.33-.28h.19l.49.35a4,4,0,0,0,2,.69,3.53,3.53,0,0,0,.72-.08,3.87,3.87,0,0,0,1.48-.57c.16-.1.3-.29.49-.29s.34.18.5.29a4.59,4.59,0,0,0,1.91.66c.35.05.66-.14,1-.1.11-.2.31-.07.47-.15a7.57,7.57,0,0,0,1.3-.8Zm-13.49,13.08a4.22,4.22,0,0,0,.21,1.4,5.42,5.42,0,0,0,1.33,2.29,7.56,7.56,0,0,0,.8.7,4.23,4.23,0,0,0,1.24.66,8.82,8.82,0,0,0,1.51.39,9.74,9.74,0,0,1,1.69.83,6,6,0,0,1,1.13.94c.17.18.25.17.42,0a4.28,4.28,0,0,1,.65-.63,12.15,12.15,0,0,1,1.53-.88,10.15,10.15,0,0,1,1.22-.38,5.8,5.8,0,0,0,1.33-.45,9.71,9.71,0,0,0,1-.64,4.82,4.82,0,0,0,1.39-1.56,5.34,5.34,0,0,0,.77-2.76,8.08,8.08,0,0,0-.08-.86,3.66,3.66,0,0,0-.24-1c-.25-.62-.54-1.23-.83-1.84a6.92,6.92,0,0,1-.56-2.33,4,4,0,0,1,.09-.62,4.35,4.35,0,0,1,.1-.63,6.25,6.25,0,0,1,.55-1.48c.18-.26.33-.53.51-.78,0-.08.07-.1,0-.18l-2.35-2.34c-.1-.11-.15-.09-.27,0a4.5,4.5,0,0,1-1.39.64,3.89,3.89,0,0,1-1.76.06,4.32,4.32,0,0,1-1.8-.7c-.08,0-.09-.06-.17,0a4.56,4.56,0,0,1-1.4.64,4,4,0,0,1-.84.13,4.3,4.3,0,0,1-1-.07,5.36,5.36,0,0,1-1.68-.66c-.19-.14-.19-.14-.36,0L105,139.58c-.21.21-.2.21,0,.47a3,3,0,0,1,.68,1.24,4.07,4.07,0,0,1,.45,1.84,3.52,3.52,0,0,1-.09,1.29,3.68,3.68,0,0,1-.17.63l-.28.6c-.08.2-.15.41-.24.61-.2.46-.45.89-.61,1.36A5.5,5.5,0,0,0,104.44,149.48Z"/><path class="cls-6" d="M104.44,149.48a5.5,5.5,0,0,1,.3-1.86c.16-.47.41-.9.61-1.36.09-.2.16-.41.24-.61l.28-.6a3.68,3.68,0,0,0,.17-.63,3.52,3.52,0,0,0,.09-1.29,4.07,4.07,0,0,0-.45-1.84,3,3,0,0,0-.68-1.24c-.19-.26-.2-.26,0-.47l2.18-2.18c.17-.17.17-.17.36,0a5.36,5.36,0,0,0,1.68.66,4.3,4.3,0,0,0,1,.07,4,4,0,0,0,.84-.13,4.56,4.56,0,0,0,1.4-.64c.08-.06.09,0,.17,0a4.32,4.32,0,0,0,1.8.7,3.89,3.89,0,0,0,1.76-.06,4.5,4.5,0,0,0,1.39-.64c.12-.08.17-.1.27,0l2.35,2.34c.07.08,0,.1,0,.18-.18.25-.33.52-.51.78a6.25,6.25,0,0,0-.55,1.48,4.35,4.35,0,0,0-.1.63,4,4,0,0,0-.09.62,6.92,6.92,0,0,0,.56,2.33c.29.61.58,1.22.83,1.84a3.66,3.66,0,0,1,.24,1,8.08,8.08,0,0,1,.08.86,5.34,5.34,0,0,1-.77,2.76,4.82,4.82,0,0,1-1.39,1.56,9.71,9.71,0,0,1-1,.64,5.8,5.8,0,0,1-1.33.45,10.15,10.15,0,0,0-1.22.38,12.15,12.15,0,0,0-1.53.88,4.28,4.28,0,0,0-.65.63c-.17.16-.25.17-.42,0a6,6,0,0,0-1.13-.94,9.74,9.74,0,0,0-1.69-.83,8.82,8.82,0,0,1-1.51-.39,4.23,4.23,0,0,1-1.24-.66,7.56,7.56,0,0,1-.8-.7,5.42,5.42,0,0,1-1.33-2.29A4.22,4.22,0,0,1,104.44,149.48Zm15.48-.11a3.2,3.2,0,0,0,0-.76,5.3,5.3,0,0,0-.28-.88c-.14-.28-.22-.57-.36-.85a15.24,15.24,0,0,1-.65-1.49,3.37,3.37,0,0,1-.3-1.19,7.78,7.78,0,0,1,.16-2.4,7,7,0,0,1,.69-1.66.35.35,0,0,0,0-.49c-.07-.08-.12-.18-.18-.25-.33-.38-.7-.73-1.06-1.08,0,0-.12,0-.16-.07s-.12,0-.2,0a5.11,5.11,0,0,1-1.07.4,7.08,7.08,0,0,1-1.38.21c-.18,0-.35-.08-.53-.08a3.7,3.7,0,0,1-1.57-.45.83.83,0,0,0-.85,0,6.46,6.46,0,0,1-1.12.39c-.33.11-.68-.07-1,.14a.25.25,0,0,1-.19,0,2.7,2.7,0,0,0-.39-.08,4.66,4.66,0,0,1-1.75-.48.39.39,0,0,0-.51,0,11,11,0,0,0-1.28,1.37.3.3,0,0,0,0,.38,3.9,3.9,0,0,1,.56,1.14,4.36,4.36,0,0,1,.32,1.24,8.28,8.28,0,0,1-.06,2.05,7.71,7.71,0,0,1-.37,1.18c-.26.64-.57,1.26-.83,1.89a3.63,3.63,0,0,0-.34,1.52c0,.26,0,.51,0,.76a3.8,3.8,0,0,0,.13.75,3.91,3.91,0,0,0,.8,1.57c0,.16.13.15.2.19a.27.27,0,0,0,.38-.19c0-.22,0-.44-.2-.59a.56.56,0,0,1-.17-.25,4.57,4.57,0,0,1-.48-2.46,2.77,2.77,0,0,1,.2-.87c.29-.62.57-1.25.85-1.88a6,6,0,0,0,.57-2.28c0-.16-.08-.35.08-.49-.16-.15-.06-.35-.09-.52a5.29,5.29,0,0,0-.08-.78,8.6,8.6,0,0,0-.58-1.8c-.06-.1-.18-.22-.16-.3s.16-.21.25-.31l.64-.63s.06-.06.14,0a4.44,4.44,0,0,0,1.14.35,9.53,9.53,0,0,0,1.21.17c.18,0,.36-.07.53-.08a5,5,0,0,0,1.77-.44.56.56,0,0,1,.44,0,4.66,4.66,0,0,0,1.22.37c.31,0,.61.14.93.16a1.75,1.75,0,0,0,.69,0c.23-.1.5,0,.7-.15a3.12,3.12,0,0,0,1.11-.31s.07-.08.13,0c.29.3.58.59.88.87.06.07,0,.09,0,.14a9.8,9.8,0,0,0-.55,1.39,4.93,4.93,0,0,0-.24,1.37,1.14,1.14,0,0,1-.06.61c.14.2,0,.43.06.64a5.94,5.94,0,0,0,.11.86c.09.29.16.6.27.88s.25.6.38.89l.48,1a5.53,5.53,0,0,1,.32,1.05,11.59,11.59,0,0,1,.06,1.31c-.18.23-.16.53-.27.79a5.21,5.21,0,0,1-.4.78,3.76,3.76,0,0,1-1.63,1.48,5.67,5.67,0,0,1-1.2.41,8.52,8.52,0,0,0-1.91.68,6.11,6.11,0,0,0-.65.38c-.21.14-.41.3-.62.45-.22-.15-.43-.31-.65-.45a7.7,7.7,0,0,0-1.57-.79,6.76,6.76,0,0,0-1.14-.34,4.06,4.06,0,0,1-1.61-.69,1.18,1.18,0,0,0-.46-.26c-.1,0-.26.12-.32.23a.28.28,0,0,0,0,.34l.4.3a3.61,3.61,0,0,0,1.31.63c.38.11.78.16,1.16.3a6.83,6.83,0,0,1,1.56.71,7.1,7.1,0,0,1,.91.64.44.44,0,0,0,.68,0c.11-.09.19-.23.31-.3a9,9,0,0,1,2.21-1.07c.31-.09.64-.14,1-.22a4.24,4.24,0,0,0,1.4-.64,5.2,5.2,0,0,0,1.59-1.74A4.27,4.27,0,0,0,119.92,149.37Zm-7.3.89c-.23,0-.47,0-.71,0a2.23,2.23,0,0,1-.43-.1.67.67,0,0,1-.12-.06,4.65,4.65,0,0,1-1.25-.65,3.87,3.87,0,0,1-1.11-1.31,4.91,4.91,0,0,1-.4-1.21,3.48,3.48,0,0,1,.06-1.67,3.14,3.14,0,0,1,.53-1.2,3.82,3.82,0,0,1,1.35-1.27,3.32,3.32,0,0,1,1.79-.51c.07,0,.14,0,.21-.06s.11,0,.12,0,.33.06.49.08.26-.05.35.09c.29-.07.49.21.77.21s.38,0,.43-.15a.39.39,0,0,0-.14-.42c-.25-.11-.52-.2-.78-.29a1.72,1.72,0,0,0-.39-.1c-.15,0-.34,0-.46,0a.74.74,0,0,0-.63,0,4.44,4.44,0,0,1-.49.07,4.42,4.42,0,0,0-.61.13,4.87,4.87,0,0,0-2.51,1.84,4.41,4.41,0,0,0-.83,2.55,7.77,7.77,0,0,0,.08,1,4.5,4.5,0,0,0,1,2.16,4.75,4.75,0,0,0,1.61,1.26,5.57,5.57,0,0,0,2.12.49,3.72,3.72,0,0,0,.57-.08,4.42,4.42,0,0,0,.74-.16,5.46,5.46,0,0,0,1-.48,2.21,2.21,0,0,0,.66-.47,6.72,6.72,0,0,0,.84-.93,5.18,5.18,0,0,0,.66-1.53,4.45,4.45,0,0,0,.1-.72,6.42,6.42,0,0,0,0-.76,3.69,3.69,0,0,0-.12-.81,5.63,5.63,0,0,0-.55-1.29,6,6,0,0,0-1.09-1.21s-.1,0-.16-.07a.27.27,0,0,0-.12,0,.38.38,0,0,0-.13.62c.18.19.38.38.57.57a3.28,3.28,0,0,1,.73,1.26,3.91,3.91,0,0,1,.22,1.49,4.62,4.62,0,0,1-.42,1.63,3.92,3.92,0,0,1-.42.64,3.34,3.34,0,0,1-1.18,1.06A3.24,3.24,0,0,1,112.62,150.26Zm2.18-1.66a4.86,4.86,0,0,1-.1-.52,2.81,2.81,0,0,1,0-.71c0-.14-.23-.18-.07-.33s.15-.22.24-.33.23-.22.33-.33.46-.51.67-.77a.36.36,0,0,0-.2-.57,10,10,0,0,0-1.2-.29c-.31-.05-.67-.1-.82-.43s-.45-.72-.63-1.11a1.48,1.48,0,0,0-.31-.39.22.22,0,0,0-.33,0c0,.06-.12.11-.16.17-.28.47-.58.93-.83,1.42a.39.39,0,0,1-.24.21c-.3.09-.61.15-.91.22-.12,0-.23,0-.35.08s-.24,0-.38.09c-.33.16-.36.15-.32.43a.4.4,0,0,0,.12.23c.33.38.67.74,1,1.11.14.15.28.35.19.53a1.85,1.85,0,0,0-.08.77c0,.11,0,.25,0,.32s-.07.4-.07.59a.33.33,0,0,0,.46.27c.45-.19.88-.4,1.33-.56.24-.09.46-.24.76-.07.46.25,1,.42,1.44.64a.28.28,0,0,0,.33-.06C114.85,149.07,114.78,148.88,114.8,148.6Z"/><path class="cls-7" d="M119.92,149.37a4.27,4.27,0,0,1-.56,2.28,5.2,5.2,0,0,1-1.59,1.74,4.24,4.24,0,0,1-1.4.64c-.31.08-.64.13-1,.22a9,9,0,0,0-2.21,1.07c-.12.07-.2.21-.31.3a.44.44,0,0,1-.68,0,7.1,7.1,0,0,0-.91-.64,6.83,6.83,0,0,0-1.56-.71c-.38-.14-.78-.19-1.16-.3a3.61,3.61,0,0,1-1.31-.63l-.4-.3a.28.28,0,0,1,0-.34c.06-.11.22-.24.32-.23a1.18,1.18,0,0,1,.46.26,4.06,4.06,0,0,0,1.61.69,6.76,6.76,0,0,1,1.14.34,7.7,7.7,0,0,1,1.57.79c.22.14.43.3.65.45.21-.15.41-.31.62-.45a6.11,6.11,0,0,1,.65-.38,8.52,8.52,0,0,1,1.91-.68,5.67,5.67,0,0,0,1.2-.41,3.76,3.76,0,0,0,1.63-1.48,5.21,5.21,0,0,0,.4-.78c.11-.26.09-.56.27-.79a11.59,11.59,0,0,0-.06-1.31,5.53,5.53,0,0,0-.32-1.05l-.48-1c-.13-.29-.26-.59-.38-.89s-.18-.59-.27-.88a5.94,5.94,0,0,1-.11-.86c0-.21.08-.44-.06-.64a1.14,1.14,0,0,0,.06-.61,4.93,4.93,0,0,1,.24-1.37,9.8,9.8,0,0,1,.55-1.39c0-.05.07-.07,0-.14-.3-.28-.59-.57-.88-.87-.06-.07-.08,0-.13,0a3.12,3.12,0,0,1-1.11.31c-.2.2-.47,0-.7.15a1.75,1.75,0,0,1-.69,0c-.32,0-.62-.12-.93-.16a4.66,4.66,0,0,1-1.22-.37.56.56,0,0,0-.44,0,5,5,0,0,1-1.77.44c-.17,0-.35.08-.53.08a9.53,9.53,0,0,1-1.21-.17,4.44,4.44,0,0,1-1.14-.35c-.08,0-.1,0-.14,0l-.64.63c-.09.1-.22.19-.25.31s.1.2.16.3a8.6,8.6,0,0,1,.58,1.8,5.29,5.29,0,0,1,.08.78c0,.17-.07.37.09.52-.16.14-.08.33-.08.49a6,6,0,0,1-.57,2.28c-.28.63-.56,1.26-.85,1.88a2.77,2.77,0,0,0-.2.87,4.57,4.57,0,0,0,.48,2.46.56.56,0,0,0,.17.25c.23.15.21.37.2.59a.27.27,0,0,1-.38.19c-.07,0-.23,0-.2-.19a3.91,3.91,0,0,1-.8-1.57,3.8,3.8,0,0,1-.13-.75c0-.25,0-.5,0-.76a3.63,3.63,0,0,1,.34-1.52c.26-.63.57-1.25.83-1.89a7.71,7.71,0,0,0,.37-1.18,8.28,8.28,0,0,0,.06-2.05,4.36,4.36,0,0,0-.32-1.24,3.9,3.9,0,0,0-.56-1.14.3.3,0,0,1,0-.38,11,11,0,0,1,1.28-1.37.39.39,0,0,1,.51,0,4.66,4.66,0,0,0,1.75.48,2.7,2.7,0,0,1,.39.08.25.25,0,0,0,.19,0c.3-.21.65,0,1-.14a6.46,6.46,0,0,0,1.12-.39.83.83,0,0,1,.85,0,3.7,3.7,0,0,0,1.57.45c.18,0,.35.09.53.08a7.08,7.08,0,0,0,1.38-.21,5.11,5.11,0,0,0,1.07-.4c.08,0,.12-.07.2,0s.12,0,.16.07c.36.35.73.7,1.06,1.08.06.07.11.17.18.25a.35.35,0,0,1,0,.49,7,7,0,0,0-.69,1.66,7.78,7.78,0,0,0-.16,2.4,3.37,3.37,0,0,0,.3,1.19,15.24,15.24,0,0,0,.65,1.49c.14.28.22.57.36.85a5.3,5.3,0,0,1,.28.88A3.2,3.2,0,0,1,119.92,149.37Z"/><path class="cls-7" d="M112.62,150.26a3.24,3.24,0,0,0,2-.51,3.34,3.34,0,0,0,1.18-1.06,3.92,3.92,0,0,0,.42-.64,4.62,4.62,0,0,0,.42-1.63,3.91,3.91,0,0,0-.22-1.49,3.28,3.28,0,0,0-.73-1.26c-.19-.19-.39-.38-.57-.57a.38.38,0,0,1,.13-.62.27.27,0,0,1,.12,0c.06,0,.13,0,.16.07a6,6,0,0,1,1.09,1.21,5.63,5.63,0,0,1,.55,1.29,3.69,3.69,0,0,1,.12.81,6.42,6.42,0,0,1,0,.76,4.45,4.45,0,0,1-.1.72,5.18,5.18,0,0,1-.66,1.53,6.72,6.72,0,0,1-.84.93,2.21,2.21,0,0,1-.66.47,5.46,5.46,0,0,1-1,.48,4.42,4.42,0,0,1-.74.16,3.72,3.72,0,0,1-.57.08,5.57,5.57,0,0,1-2.12-.49,4.75,4.75,0,0,1-1.61-1.26,4.5,4.5,0,0,1-1-2.16,7.77,7.77,0,0,1-.08-1,4.41,4.41,0,0,1,.83-2.55,4.87,4.87,0,0,1,2.51-1.84,4.42,4.42,0,0,1,.61-.13,4.44,4.44,0,0,0,.49-.07.74.74,0,0,1,.63,0c.12.07.31,0,.46,0a1.72,1.72,0,0,1,.39.1c.26.09.53.18.78.29a.39.39,0,0,1,.14.42c0,.11-.27.15-.43.15s-.48-.28-.77-.21c-.09-.14-.23-.07-.35-.09s-.34.08-.49-.08-.08,0-.12,0-.14.07-.21.06a3.32,3.32,0,0,0-1.79.51,3.82,3.82,0,0,0-1.35,1.27,3.14,3.14,0,0,0-.53,1.2,3.48,3.48,0,0,0-.06,1.67,4.91,4.91,0,0,0,.4,1.21,3.87,3.87,0,0,0,1.11,1.31,4.65,4.65,0,0,0,1.25.65.67.67,0,0,0,.12.06,2.23,2.23,0,0,0,.43.1C112.15,150.27,112.39,150.26,112.62,150.26Z"/><path class="cls-7" d="M114.8,148.6c0,.28,0,.47-.14.62a.28.28,0,0,1-.33.06c-.48-.22-1-.39-1.44-.64-.3-.17-.52,0-.76.07-.45.16-.88.37-1.33.56a.33.33,0,0,1-.46-.27c0-.19-.08-.4.07-.59s0-.21,0-.32a1.85,1.85,0,0,1,.08-.77c.09-.18-.05-.38-.19-.53-.33-.37-.67-.73-1-1.11a.4.4,0,0,1-.12-.23c0-.28,0-.27.32-.43.14-.06.29,0,.38-.09s.23-.06.35-.08c.3-.07.61-.13.91-.22a.39.39,0,0,0,.24-.21c.25-.49.55-.95.83-1.42,0-.06.11-.11.16-.17a.22.22,0,0,1,.33,0,1.48,1.48,0,0,1,.31.39c.18.39.45.72.63,1.11s.51.38.82.43a10,10,0,0,1,1.2.29.36.36,0,0,1,.2.57c-.21.26-.44.51-.67.77s-.23.21-.33.33-.15.24-.24.33.09.19.07.33a2.81,2.81,0,0,0,0,.71A4.86,4.86,0,0,0,114.8,148.6Zm-3.71-.68v.21c0,.26,0,.29.29.18l1-.47a.37.37,0,0,1,.25,0c.26.1.51.24.76.35l.49.19s.11,0,.11-.05a8,8,0,0,0,0-1c0-.21-.12-.42,0-.61s.42-.48.63-.73l.3-.4s0-.07,0-.07c-.4-.05-.78-.2-1.16-.28a.64.64,0,0,1-.49-.33c-.18-.32-.41-.62-.56-1,0-.1-.11-.09-.19,0a6,6,0,0,0-.56.86c-.14.21-.24.39-.54.43a5.83,5.83,0,0,0-.89.23l-.35.06c.08.11.2.19.24.31.11.28.36.42.54.62a.94.94,0,0,1,.24.57C111.23,147.35,111,147.63,111.09,147.92Z"/><path class="cls-6" d="M111.09,147.92c-.06-.29.14-.57.1-.89a.94.94,0,0,0-.24-.57c-.18-.2-.43-.34-.54-.62,0-.12-.16-.2-.24-.31l.35-.06a5.83,5.83,0,0,1,.89-.23c.3,0,.4-.22.54-.43a6,6,0,0,1,.56-.86c.08-.09.14-.1.19,0,.15.34.38.64.56,1a.64.64,0,0,0,.49.33c.38.08.76.23,1.16.28,0,0,0,.06,0,.07l-.3.4c-.21.25-.44.48-.63.73s-.07.4,0,.61a8,8,0,0,1,0,1s-.08.06-.11.05l-.49-.19c-.25-.11-.5-.25-.76-.35a.37.37,0,0,0-.25,0l-1,.47c-.24.11-.29.08-.29-.18Z"/><path class="cls-8" d="M75.39,16s27.32-.61,35.61,17.19c0,0,6.75,4.3,7.68,23,0,0-.62,8.6,0,9.52,0,0,3.37,4.3,2.76,15.66,0,0,.92,7.06-1.23,11.66,0,0-13.51,22.41-23.94,24.56,0,0-17.81,0-32.54-11.22,0,0-9.52-18.25-8.9-21.63,0,0-9.52-27.32-7.06-35.3C47.77,49.42,49.61,21.49,75.39,16Z"/><path class="cls-8" d="M58,94.53C54.46,96,51,90.39,51,90.39c-2.34-2-3.59-9-3.59-9C43.58,70.6,51,72.19,51,72.19Z"/><path class="cls-8" d="M118.68,56.17S128.19,51,127,66.76c0,0,1.54,14.89-5.52,14.59Z"/><path class="cls-3" d="M96.79,114.32l-.67-3.45c-.15-.79-1.36-.46-1.2.33l.67,3.46c.15.79,1.35.45,1.2-.34Z"/><path class="cls-3" d="M48.31,76.12c1,1.13,3.07.71,3.64,2.32.27.75,1.48.43,1.21-.33a3.19,3.19,0,0,0-1.61-1.88c-.76-.37-1.77-.35-2.36-1s-1.42.29-.88.89Z"/><path class="cls-3" d="M55,87.83a7.2,7.2,0,0,1-.72-5.33c.14-.78-1.07-1.12-1.2-.33-.37,2.18-.41,4.38.84,6.29.44.68,1.52.05,1.08-.63Z"/><path class="cls-3" d="M122.06,58.25c-1.92.56-2.24,2.44-2.76,4.12-.24.77,1,1.1,1.2.34.36-1.16.54-2.86,1.89-3.25a.63.63,0,0,0-.33-1.21Z"/><path class="cls-3" d="M119.82,66a9.08,9.08,0,0,1,2.09,3.31,11.66,11.66,0,0,1,.17,3.82c0,.8,1.2.8,1.25,0A11.48,11.48,0,0,0,123,68.5a11.41,11.41,0,0,0-2.25-3.38c-.53-.62-1.41.27-.89.88Z"/><path class="cls-9" d="M86.19,88.32c-.45.16-.7.23-.93.33a35.52,35.52,0,0,0-3.78,1.67,5.77,5.77,0,0,0-3.09,5.86,14.83,14.83,0,0,0,2,5.77c.07.13.26.19.4.29,0-.17.16-.38.1-.5a4.8,4.8,0,0,1-.2-3.06,5.13,5.13,0,0,1,2.91-4c.85-.38,1.76-.62,2.62-1a6.6,6.6,0,0,0,3.73-2.69c.24-.42.54-.23.86-.19,1.18.16,2.36.35,3.54.43s2.39.05,3.58.07c2.78,0,4.79,1.22,5.73,3.94.12.35.17.73.32,1.07a2.72,2.72,0,0,0,.45.59c.15-.22.42-.44.42-.66,0-1,0-2.08-.1-3.12-.29-3.52-2.34-5.5-5.65-6.35a14.17,14.17,0,0,0-6.16-.27c.2-.72.62-.79,1.2-.74a11,11,0,0,0,2,0,1.55,1.55,0,0,0,1.44-1.34,5,5,0,0,0-.76-3.95,2.59,2.59,0,0,0-1.15-.81.88.88,0,0,0-.82.26c-.22.37,0,.64.43.82a3,3,0,0,1,1.14,3.37c-.2.32-.78.45-1.21.56a.81.81,0,0,1-.6-.41c-.36-.81-.71-.93-1.33-.26s-1,1.29-1.51,1.94a3.56,3.56,0,0,1-4.36,1.32c-.53-.18-1-.46-1.55-.63A8.28,8.28,0,0,0,84,86.26a1.29,1.29,0,0,0-.89.45c-.54.61-1,.66-1.32-.08a9.83,9.83,0,0,1-.44-2.17,11.71,11.71,0,0,0-.08-1.21c-.06-.21-.4-.39-.65-.44-.1,0-.4.32-.4.49a17.8,17.8,0,0,0,.24,3.11c.41,1.83,1.9,2.35,3.49,1.37a1.37,1.37,0,0,1,1-.12A6.8,6.8,0,0,1,86.19,88.32Zm12.87-42.5a12.14,12.14,0,0,0-8.7,3,7.77,7.77,0,0,0-2.17,3.08c-.41,1.1.17,1.91,1.32,1.76a4.46,4.46,0,0,0,1.77-.62,26.19,26.19,0,0,0,2.48-1.89,8.3,8.3,0,0,1,4.54-2c1.37-.12,2.74-.1,4.12-.15a2.55,2.55,0,0,1,2.66,1.76,1.18,1.18,0,0,0,1.7.75c.63-.29.72-.81.32-1.73A6,6,0,0,0,104,46.76,11.17,11.17,0,0,0,99.06,45.82ZM65.41,59c-2.88.08-5.31,1-6.9,3.6A3.56,3.56,0,0,0,58,63.71,1.14,1.14,0,0,0,58.86,65c.6.24,1-.06,1.24-.61a7.29,7.29,0,0,1,.42-.78,3.09,3.09,0,0,1,3.18-1.84,29.07,29.07,0,0,1,4.23.85c2.25.65,4.45,1.48,6.7,2.13a4.24,4.24,0,0,0,2.06-.06A1.76,1.76,0,0,0,78.2,62.8a2,2,0,0,0-1.7-1.94,7.08,7.08,0,0,0-2.1-.1,6.9,6.9,0,0,1-3.7-.49A13.4,13.4,0,0,0,65.41,59Zm29.32,8.3a25.61,25.61,0,0,0,7.63-1.47,14.85,14.85,0,0,0,2.6-1.26,4,4,0,0,0,1.81-2.34c.08-.26,0-.79-.16-.87a22.26,22.26,0,0,0-3.77-1.61,14.9,14.9,0,0,0-6.34.06c-2.89.5-5.35,1.66-6.35,4.74a1.18,1.18,0,0,1-.16.29c-.48.78-.45.91.32,1.39A8.79,8.79,0,0,0,94.73,67.29ZM69.21,72.84c1.44-.13,2.6-.17,3.73-.35a11.58,11.58,0,0,0,6.8-3.34,1.28,1.28,0,0,0,.16-2,4.41,4.41,0,0,0-3.64-2.08,18,18,0,0,0-10.43,2.69,12.27,12.27,0,0,0-2.77,2.71c-.76.93-.51,1.48.66,1.66C65.63,72.43,67.56,72.63,69.21,72.84Zm15.18,24.4c0-.2,0-.3,0-.4.07-.41,0-.82-.49-.79a.9.9,0,0,0-.6.61,9,9,0,0,0-.11,2.2,1.48,1.48,0,0,0,.64,1c.23.15.66,0,1,0,0-.29-.1-.58-.14-.88s-.1-.42,0-.46C86.38,97.43,88,96,90.3,96.24a3.72,3.72,0,0,0,2-.41A7.45,7.45,0,0,1,97,95a13.26,13.26,0,0,0,1.78.08c.65,0,1.12,0,.74.87-.15.35-.14.83.36.87a1,1,0,0,0,.71-.53,3,3,0,0,0-.92-3.71c-.39-.32-.86-1-1.39-.38s.28.85.62,1.2a2.13,2.13,0,0,1,.26.44,1.82,1.82,0,0,1-.5.12c-1.19-.06-2.38-.15-3.57-.21a5.27,5.27,0,0,0-2.78.69,4.7,4.7,0,0,1-2,.53,7.86,7.86,0,0,0-4.21,1.28C85.54,96.55,85,96.87,84.39,97.24Zm2.75-33.35a16.14,16.14,0,0,0,1.61,4.76,35.75,35.75,0,0,1,1.35,4.1c.39,1.39.67,2.81,1,4.2.1.38.32.85.85.63s.32-.63.2-1a26.3,26.3,0,0,1-.77-3.12A15.59,15.59,0,0,0,90,68.51a27.7,27.7,0,0,1-1.42-3.26,8.71,8.71,0,0,1-.31-1.86c0-.45-.16-.88-.7-.75-.19,0-.3.47-.43.73A2.06,2.06,0,0,0,87.14,63.89Zm-5.74,6c.13,1.29.24,2.58.4,3.87.2,1.66.41,3.32.67,5,0,.26.33.47.5.71.2-.22.57-.43.58-.65a10.15,10.15,0,0,0-.08-2.34,34.63,34.63,0,0,1-.84-8.19A13.92,13.92,0,0,0,82,64.92c-.09-.43-.42-.69-.81-.44a.87.87,0,0,0-.23.83A9.11,9.11,0,0,1,81.4,69.94Zm8.31,30.53c.94-.1,1.64-.14,2.34-.25a7.13,7.13,0,0,0,4.21-1.83c.3-.29.62-.63.27-1s-.7-.12-1,.17A5.74,5.74,0,0,1,92.57,99a7.51,7.51,0,0,1-4.28,0c-.22-.08-.56.16-.85.26.15.26.25.66.46.75A15.35,15.35,0,0,0,89.71,100.47Zm-7-42.35c-.27-.82-.57-1.73-.91-2.62,0-.12-.35-.14-.53-.21a1.87,1.87,0,0,0,0,.48c.13.35.34.67.45,1a5.88,5.88,0,0,1-.21,3.84,3.12,3.12,0,0,0,0,.87c.2-.24.49-.46.57-.73C82.34,60,82.5,59.11,82.73,58.12Zm.84-1.46a3.23,3.23,0,0,0-.27.58,2.76,2.76,0,0,0,1.62,2.67,1.15,1.15,0,0,0,.41,0c0-.15,0-.39-.14-.45a2.59,2.59,0,0,1-1.39-2.26A2.45,2.45,0,0,0,83.57,56.66Z"/><path d="M86.19,88.32a6.8,6.8,0,0,0-1.27-.66,1.37,1.37,0,0,0-1,.12c-1.59,1-3.08.46-3.49-1.37a17.8,17.8,0,0,1-.24-3.11c0-.17.3-.52.4-.49.25,0,.59.23.65.44a11.71,11.71,0,0,1,.08,1.21,9.83,9.83,0,0,0,.44,2.17c.29.74.78.69,1.32.08a1.29,1.29,0,0,1,.89-.45,8.28,8.28,0,0,1,1.83.44c.53.17,1,.45,1.55.63A3.56,3.56,0,0,0,91.73,86c.5-.65,1-1.33,1.51-1.94s1-.55,1.33.26a.81.81,0,0,0,.6.41c.43-.11,1-.24,1.21-.56a3,3,0,0,0-1.14-3.37c-.44-.18-.65-.45-.43-.82a.88.88,0,0,1,.82-.26,2.59,2.59,0,0,1,1.15.81,5,5,0,0,1,.76,3.95,1.55,1.55,0,0,1-1.44,1.34,11,11,0,0,1-2,0c-.58,0-1,0-1.2.74a14.17,14.17,0,0,1,6.16.27c3.31.85,5.36,2.83,5.65,6.35.08,1,.11,2.08.1,3.12,0,.22-.27.44-.42.66a2.72,2.72,0,0,1-.45-.59c-.15-.34-.2-.72-.32-1.07-.94-2.72-2.95-3.9-5.73-3.94-1.19,0-2.39,0-3.58-.07s-2.36-.27-3.54-.43c-.32,0-.62-.23-.86.19a6.6,6.6,0,0,1-3.73,2.69c-.86.34-1.77.58-2.62,1a5.13,5.13,0,0,0-2.91,4,4.8,4.8,0,0,0,.2,3.06c.06.12-.06.33-.1.5-.14-.1-.33-.16-.4-.29a14.83,14.83,0,0,1-2-5.77,5.77,5.77,0,0,1,3.09-5.86,35.52,35.52,0,0,1,3.78-1.67C85.49,88.55,85.74,88.48,86.19,88.32Zm-6.33,9.45.29.12a6.45,6.45,0,0,1,5-4.36,4.36,4.36,0,0,0,1.36-.5,19.29,19.29,0,0,0,2.41-1.59,2.83,2.83,0,0,0,.71-1.23c.15-.42,0-.73-.55-.68s-.89.11-1.33.12a2,2,0,0,1-.65-.18,2.63,2.63,0,0,1,.58-.38,3.57,3.57,0,0,1,.74-.1v-.23a8.31,8.31,0,0,0-1.81.12A15.74,15.74,0,0,0,83.42,90a14.38,14.38,0,0,0-3.21,2.17,4.78,4.78,0,0,0-.75,5.55,6.72,6.72,0,0,1,.1-1.14,13.89,13.89,0,0,1,.59-1.79c.07-.15.33-.21.51-.32a2,2,0,0,1,0,.55C80.41,95.94,80.13,96.85,79.86,97.77ZM91.2,88.42c.59-.13,1-.24,1.45-.31.12,0,.25.1.37.15-.09.13-.16.32-.28.37-.59.23-1.19.42-1.79.63s-.5.55-.09.79a3.86,3.86,0,0,0,1.53.57c1.9.13,3.8.19,5.7.22a5.79,5.79,0,0,1,5.65,3.28s.1,0,.16.07c-.24-2.14-1-3.07-3-3.67a1.17,1.17,0,0,1-.32-.09c-.07-.05-.17-.16-.16-.24s.14-.2.21-.19a2.41,2.41,0,0,1,1,.1c.71.36,1.37.81,2,1.21a4.94,4.94,0,0,0-2.79-3.13A13.24,13.24,0,0,0,94,87,3.65,3.65,0,0,0,91.2,88.42Z"/><path d="M99.06,45.82a11.17,11.17,0,0,1,4.93.94,6,6,0,0,1,3.11,3.07c.4.92.31,1.44-.32,1.73a1.18,1.18,0,0,1-1.7-.75,2.55,2.55,0,0,0-2.66-1.76c-1.38.05-2.75,0-4.12.15a8.3,8.3,0,0,0-4.54,2,26.19,26.19,0,0,1-2.48,1.89,4.46,4.46,0,0,1-1.77.62c-1.15.15-1.73-.66-1.32-1.76a7.77,7.77,0,0,1,2.17-3.08A12.14,12.14,0,0,1,99.06,45.82Z"/><path d="M65.41,59a13.4,13.4,0,0,1,5.29,1.28,6.9,6.9,0,0,0,3.7.49,7.08,7.08,0,0,1,2.1.1,2,2,0,0,1,1.7,1.94,1.76,1.76,0,0,1-1.51,1.91,4.24,4.24,0,0,1-2.06.06c-2.25-.65-4.45-1.48-6.7-2.13a29.07,29.07,0,0,0-4.23-.85,3.09,3.09,0,0,0-3.18,1.84,7.29,7.29,0,0,0-.42.78c-.25.55-.64.85-1.24.61A1.14,1.14,0,0,1,58,63.71a3.56,3.56,0,0,1,.47-1.12C60.1,60,62.53,59.07,65.41,59Z"/><path d="M94.73,67.29a8.79,8.79,0,0,1-4.42-1.07c-.77-.48-.8-.61-.32-1.39a1.18,1.18,0,0,0,.16-.29c1-3.08,3.46-4.24,6.35-4.74a14.9,14.9,0,0,1,6.34-.06,22.26,22.26,0,0,1,3.77,1.61c.16.08.24.61.16.87A4,4,0,0,1,105,64.56a14.85,14.85,0,0,1-2.6,1.26A25.61,25.61,0,0,1,94.73,67.29ZM91,64.23c4.57-1.78,9.1-3.11,14-3.08a5.85,5.85,0,0,0-1.74-.74,17.9,17.9,0,0,0-6.88,0,8.05,8.05,0,0,0-3.85,1.66A4.44,4.44,0,0,0,91,64.23Zm5.64,1.62c1.3-.26,2.52-.42,3.69-.76a1.92,1.92,0,0,0,1.37-2.26c-.1-.43-.2-1-.84-.79-.47.12-1.21-.08-1.1.85a1.1,1.1,0,0,1-.83,1.29c-.68.16-1.5.13-1.81-.52-.39-.83-.87-.66-1.47-.47-.95.29-1.23,1.14-.51,1.83A6.8,6.8,0,0,0,96.59,65.85Zm5.46-1.07a6.36,6.36,0,0,0,3.25-2.15c.28-.4.31-.69-.29-.7-.78,0-1.56,0-2.33,0-.56,0-.53.24-.52.68A21.86,21.86,0,0,1,102.05,64.78Zm-7.16,1.27c-.28-.71-.52-1.34-.81-2a.57.57,0,0,0-.51-.27c-.75.3-1.49.65-2.23,1-.46.21-.43.44,0,.64A7.34,7.34,0,0,0,94.89,66.05Z"/><path d="M69.21,72.84c-1.65-.21-3.58-.41-5.49-.69-1.17-.18-1.42-.73-.66-1.66a12.27,12.27,0,0,1,2.77-2.71,18,18,0,0,1,10.43-2.69,4.41,4.41,0,0,1,3.64,2.08,1.28,1.28,0,0,1-.16,2,11.58,11.58,0,0,1-6.8,3.34C71.81,72.67,70.65,72.71,69.21,72.84ZM64,70l.16.32a36.18,36.18,0,0,1,15.1-3,4.13,4.13,0,0,0-3.43-1.75,18.16,18.16,0,0,0-9.66,2.65A19.45,19.45,0,0,0,64,70Zm6.4,1.66c1.17-.19,2.35-.34,3.51-.58a2,2,0,0,0,.85-2.77.41.41,0,0,0-.29-.13,3.63,3.63,0,0,0-1.2.14c-.16.06-.18.49-.26.75a1.74,1.74,0,0,1-1.22,1.34,1.24,1.24,0,0,1-1.55-.57c-.43-1.08-1.11-.68-1.8-.5s-.59.44-.41.92C68.46,71.42,68.83,71.64,70.41,71.7Zm7.17-3.76c-.86.08-1.65-.07-2,.24s0,1.1-.1,1.67c-.08.8.27.7.75.42a13.45,13.45,0,0,0,1.49-1,10.58,10.58,0,0,0,1.17-1.24Zm-13.24,3,.06.24,3.56.44a13,13,0,0,1-.52-1.36c-.12-.4-.31-.43-.65-.29C66,70.28,65.16,70.59,64.34,70.91Z"/><path d="M84.39,97.24c.61-.37,1.15-.69,1.67-1a7.86,7.86,0,0,1,4.21-1.28,4.7,4.7,0,0,0,2-.53,5.27,5.27,0,0,1,2.78-.69c1.19.06,2.38.15,3.57.21a1.82,1.82,0,0,0,.5-.12,2.13,2.13,0,0,0-.26-.44c-.34-.35-1.09-.63-.62-1.2s1,.06,1.39.38a3,3,0,0,1,.92,3.71,1,1,0,0,1-.71.53c-.5,0-.51-.52-.36-.87.38-.86-.09-.89-.74-.87A13.26,13.26,0,0,1,97,95a7.45,7.45,0,0,0-4.64.86,3.72,3.72,0,0,1-2,.41c-2.3-.21-3.92,1.19-5.68,2.27-.06,0,0,.31,0,.46s.09.59.14.88c-.34,0-.77.13-1,0a1.48,1.48,0,0,1-.64-1,9,9,0,0,1,.11-2.2.9.9,0,0,1,.6-.61c.49,0,.56.38.49.79C84.35,96.94,84.38,97,84.39,97.24Z"/><path d="M87.14,63.89a2.06,2.06,0,0,1,0-.52c.13-.26.24-.68.43-.73.54-.13.65.3.7.75a8.71,8.71,0,0,0,.31,1.86A27.7,27.7,0,0,0,90,68.51a15.59,15.59,0,0,1,1.42,4.9,26.3,26.3,0,0,0,.77,3.12c.12.42.31.84-.2,1s-.75-.25-.85-.63c-.37-1.39-.65-2.81-1-4.2a35.75,35.75,0,0,0-1.35-4.1A16.14,16.14,0,0,1,87.14,63.89Z"/><path d="M81.4,69.94A9.11,9.11,0,0,0,81,65.31a.87.87,0,0,1,.23-.83c.39-.25.72,0,.81.44a13.92,13.92,0,0,1,.61,3.38,34.63,34.63,0,0,0,.84,8.19,10.15,10.15,0,0,1,.08,2.34c0,.22-.38.43-.58.65-.17-.24-.46-.45-.5-.71-.26-1.64-.47-3.3-.67-5C81.64,72.52,81.53,71.23,81.4,69.94Z"/><path d="M89.71,100.47A15.35,15.35,0,0,1,87.9,100c-.21-.09-.31-.49-.46-.75.29-.1.63-.34.85-.26a7.51,7.51,0,0,0,4.28,0,5.74,5.74,0,0,0,2.94-1.46c.32-.29.64-.62,1-.17s0,.76-.27,1a7.13,7.13,0,0,1-4.21,1.83C91.35,100.33,90.65,100.37,89.71,100.47Z"/><path d="M82.73,58.12c-.23,1-.39,1.83-.63,2.65-.08.27-.37.49-.57.73a3.12,3.12,0,0,1,0-.87,5.88,5.88,0,0,0,.21-3.84c-.11-.35-.32-.67-.45-1a1.87,1.87,0,0,1,0-.48c.18.07.49.09.53.21C82.16,56.39,82.46,57.3,82.73,58.12Z"/><path d="M83.57,56.66a2.45,2.45,0,0,1,.23.52,2.59,2.59,0,0,0,1.39,2.26c.1.06.09.3.14.45a1.15,1.15,0,0,1-.41,0,2.76,2.76,0,0,1-1.62-2.67A3.23,3.23,0,0,1,83.57,56.66Z"/><path class="cls-10" d="M79.86,97.77c.27-.92.55-1.83.8-2.75a2,2,0,0,0,0-.55c-.18.11-.44.17-.51.32a13.89,13.89,0,0,0-.59,1.79,6.72,6.72,0,0,0-.1,1.14,4.78,4.78,0,0,1,.75-5.55A14.38,14.38,0,0,1,83.42,90a15.74,15.74,0,0,1,3.15-1.12,8.31,8.31,0,0,1,1.81-.12V89a3.57,3.57,0,0,0-.74.1,2.63,2.63,0,0,0-.58.38,2,2,0,0,0,.65.18c.44,0,.88-.08,1.33-.12s.7.26.55.68a2.83,2.83,0,0,1-.71,1.23A19.29,19.29,0,0,1,86.48,93a4.36,4.36,0,0,1-1.36.5,6.45,6.45,0,0,0-5,4.36Z"/><path class="cls-10" d="M91.2,88.42A3.65,3.65,0,0,1,94,87a13.24,13.24,0,0,1,6.86,1.15,4.94,4.94,0,0,1,2.79,3.13c-.67-.4-1.33-.85-2-1.21a2.41,2.41,0,0,0-1-.1c-.07,0-.2.12-.21.19s.09.19.16.24a1.17,1.17,0,0,0,.32.09c2,.6,2.73,1.53,3,3.67-.06,0-.14,0-.16-.07a5.79,5.79,0,0,0-5.65-3.28c-1.9,0-3.8-.09-5.7-.22a3.86,3.86,0,0,1-1.53-.57c-.41-.24-.45-.59.09-.79s1.2-.4,1.79-.63c.12,0,.19-.24.28-.37-.12-.05-.25-.16-.37-.15C92.22,88.18,91.79,88.29,91.2,88.42Z"/><path class="cls-2" d="M91,64.23a4.44,4.44,0,0,1,1.5-2.12,8.05,8.05,0,0,1,3.85-1.66,17.9,17.9,0,0,1,6.88,0,5.85,5.85,0,0,1,1.74.74C100.05,61.12,95.52,62.45,91,64.23Z"/><path class="cls-11" d="M96.59,65.85a6.8,6.8,0,0,1-1.5-.83c-.72-.69-.44-1.54.51-1.83.6-.19,1.08-.36,1.47.47.31.65,1.13.68,1.81.52a1.1,1.1,0,0,0,.83-1.29c-.11-.93.63-.73,1.1-.85.64-.17.74.36.84.79a1.92,1.92,0,0,1-1.37,2.26C99.11,65.43,97.89,65.59,96.59,65.85Z"/><path class="cls-9" d="M102.05,64.78a21.86,21.86,0,0,0,.11-2.2c0-.44,0-.7.52-.68.77,0,1.55,0,2.33,0,.6,0,.57.3.29.7A6.36,6.36,0,0,1,102.05,64.78Z"/><path class="cls-9" d="M94.89,66.05a7.34,7.34,0,0,1-3.53-.58c-.45-.2-.48-.43,0-.64.74-.35,1.48-.7,2.23-1a.57.57,0,0,1,.51.27C94.37,64.71,94.61,65.34,94.89,66.05Z"/><path class="cls-2" d="M64,70a19.45,19.45,0,0,1,2.17-1.81,18.16,18.16,0,0,1,9.66-2.65,4.13,4.13,0,0,1,3.43,1.75,36.18,36.18,0,0,0-15.1,3Z"/><path class="cls-11" d="M70.41,71.7c-1.58-.06-2-.28-2.37-1.4-.18-.48-.14-.77.41-.92s1.37-.58,1.8.5a1.24,1.24,0,0,0,1.55.57A1.74,1.74,0,0,0,73,69.11c.08-.26.1-.69.26-.75a3.63,3.63,0,0,1,1.2-.14.41.41,0,0,1,.29.13,2,2,0,0,1-.85,2.77C72.76,71.36,71.58,71.51,70.41,71.7Z"/><path class="cls-9" d="M77.58,67.94l1.34.14a10.58,10.58,0,0,1-1.17,1.24,13.45,13.45,0,0,1-1.49,1c-.48.28-.83.38-.75-.42.06-.57-.19-1.37.1-1.67S76.72,68,77.58,67.94Z"/><path class="cls-9" d="M64.34,70.91c.82-.32,1.64-.63,2.45-1,.34-.14.53-.11.65.29A13,13,0,0,0,68,71.59l-3.56-.44Z"/></svg>
