<svg id="Layer_1" data-name="Layer 1" xmlns="http://www.w3.org/2000/svg" viewBox="0 0 191.24 241.39"><defs><style>.cls-1{fill:#cc9a90;stroke-width:3px;}.cls-1,.cls-2,.cls-3,.cls-4{stroke:#262424;stroke-miterlimit:10;}.cls-2{fill:#bcb29a;}.cls-2,.cls-3,.cls-4{stroke-width:2px;}.cls-3{fill:#d2a597;}.cls-4{fill:#262424;}.cls-5{fill:#64a7de;}.cls-6{fill:#babcbe;}.cls-7{fill:#fff;}.cls-8{fill:#997d9b;}</style></defs><title>pige</title><path class="cls-1" d="M50.54,95.37S35.58,41,66.61,41c0,0,9.85-11.32,20.44,0,0,0,13.87,18.61,15.33,28.1,0,0,8.4,26.29,0,40.52,0,0-2.19,19-34.68,14.24C67.7,123.84,49.45,101.57,50.54,95.37Z"/><path class="cls-2" d="M100.55,143.19l37.6-2.19s5.84,11.31,7.67,12l-5.48-1.82s10.22,26.64-3.65,40.15l-6.2-2.92s-1.46,7.3-.37,8L125,192.83s-5.84,12.78-7.66,13.87l-3.65-7.3s.73,10.26-2.19,11.7l-12.78-6.22,2.19-44.17-7.67-12.6Z"/><path class="cls-3" d="M72.43,124.38s1.45,10.41,0,13c0,0-52.55,20.07-53.64,25.55,0,0,12,24.82,24.45,33.22,0,0,1.36,18.61,2.69,20.8l1,3.29,12.37-1.83-.73-5.47s4,4.38,6.57,2.19c0,0-5.48-9.13-4-11.32,0,0-6.57-9.12-8.76-7.66,0,0-17.16-28.48-20.81-29.21L60.4,156.69S67.13,167,68.69,172.3c.37,1.22.45,2.16.11,2.64-1.83,2.56-2.56,17.89-2.56,17.89s5.48,18.25,32.49,12c0,0,6.94-26.65,5.11-28.48,0,0,17.16-10.58-3.29-24.45l.73-3.29s40.52-1.82,41.25-5.84c0,0,24.46-31.39,23.37-35,0,0,6.93-4.75,5.47-7.67L176.85,95l1.46-9.12-1.46-2.2,1.46-3.41L175,76h-9.85L156,87l3.21,10.59-2.48,4.38s-21.9,32.48-18.62,35c0,0-40.52-4-41.61-2.56l-9.49-1.09-2.19-8.73Z"/><rect class="cls-4" x="142.78" y="50.47" width="30.4" height="49.82" rx="11.71" ry="11.71" transform="translate(-8.64 21.75) rotate(-7.67)"/><path class="cls-2" d="M87.05,133.33l-.73-8.73c10.23.15,16.06-15,16.06-15,3-19.71.62-38.37,0-40.52S87.05,41,87.05,41c-9.86-9.86-20.44,0-20.44,0C46.16,41,46.94,67.62,46.94,67.62,40,89.5,67.7,123.84,67.7,123.84,80.84,128.58,98,177.5,98,177.5L90.7,172c7.3,5.48,5.11,20.08,5.11,20.08-2.92,7.3,7.66,19,7.66,19-5.47.37-12.77-5-12.77-5l2.55,5c-23.72-4-40.15-37.6-40.15-37.6C19.88,117.63,14.41,80.27,14.41,80.27c-2.92-50.13,28.1-48.42,28.1-48.42s13.15-19,44.54,1.46c0,0,15.69,11.68,16.06,29.93,0,0,15,50.21,30.66,67.63l4.38,6.11s-50.74-6.21-51.1-3.65"/><path d="M64.36,88.34c-3,.6-6.31.29-9.55.34-.37,0-1,.34-1-.48-.4,0-.79-.07-1.18-.13-.12,0-.29-.13-.31-.22a.45.45,0,0,1,.15-.38c.47-.23,1-.43,1.44-.62.3-.12.29-.19,0-.32a1.46,1.46,0,0,1-.6-.39c-.16-.22-.16-.44.21-.53.75-.18,1.47-.42,2.22-.61.35-.09.2-.18.06-.36-.25-.35-.15-.56.29-.56h1.24c.9,0,.93,0,1.48-.81a8.83,8.83,0,0,1,5-3.5,10.26,10.26,0,0,1,1.72-.34,13.26,13.26,0,0,1,2.19-.29c.89,0,1.72.49,2.64.33s1.68.42,2.52.62a1.27,1.27,0,0,1,1,1.44c0,.1,0,.27-.05.28-1.12.39-1,1.55-1.35,2.35a6.63,6.63,0,0,1-4.19,3.59A7.74,7.74,0,0,1,64.36,88.34ZM64,86.85a6,6,0,0,0,2,0,3.54,3.54,0,0,0,1.59-1.27,4.77,4.77,0,0,0,.71-2.14c.09-1-.47-1.38-1.47-1a14.46,14.46,0,0,0-1.57.66c-.19.09-.22.22-.12.54.34,1.11.11,1.53-.84,2.06-.75.43-.86.4-1.84-.48a2.5,2.5,0,0,0-.33-.32c-.12-.07-.33-.16-.4-.11a3.94,3.94,0,0,0-.65.64s0,.24.06.32A2.9,2.9,0,0,0,64,86.85Zm8.31-6c-.07-.06-.14-.15-.22-.16-1.81-.25-3.58-.83-5.44-.62H66.5c-1.94-.15-3.57.76-5.16,1.65a9.4,9.4,0,0,0-1.86,1.82s.14.22.19.21a4.15,4.15,0,0,0,.69-.19c1.18-.35,2.27-1,3.44-1.37A18.6,18.6,0,0,1,70.23,81c.61,0,1.23,0,1.84,0C72.16,81,72.24,80.9,72.32,80.85Zm-2,1.07c-.46,0-.92,0-1.38,0-.26,0-.27,0-.17.32a4.64,4.64,0,0,1,0,2.48c-.24,1.15-1.2,1.66-1.88,2.43a1.51,1.51,0,0,1-.36.24,1.31,1.31,0,0,0,.43.06,6.41,6.41,0,0,0,.94-.3c1.79-.64,3.35-1.59,4-3.48.17-.51.74-1.13.31-1.61-.24-.26-1-.11-1.44-.14C70.63,81.91,70.48,81.92,70.33,81.92ZM61.8,87.75c.44,0,.64,0,.84,0,0,0,.11-.1.1-.1s-.13-.19-.16-.18c-.69.25-.91-.51-1.43-.66S60.39,86,60,86s-.84.36-1.28.56a4.48,4.48,0,0,1-.52.16c.19.15.36.39.58.44C59.84,87.39,60.93,87.58,61.8,87.75Z"/><path d="M96.53,68.74c-2.25-.38-1.74-.36-1.23-.39a1.52,1.52,0,0,1,1,.3c.33.21.73.37,1.06-.14.19-.29.47-.77,1-.27,0,0,.4-.31.63-.43s.5-.15.52.25c0,.2,0,.41,0,.61s.11.3.14.29c.4-.07.74.33.71.44a2.62,2.62,0,0,1-.58,1.26,10,10,0,0,0-2,3c-.87,2-2.86,2.83-4.57,3.32a12.69,12.69,0,0,1-4.36.62c-.16,0-.35-.07-.46,0a1.48,1.48,0,0,1-1.76,0c-.4-.21-1.12.22-1.37-.33A3.3,3.3,0,0,1,85,75.7a12.12,12.12,0,0,1,.17-2.22A5.53,5.53,0,0,1,86.84,71a8.23,8.23,0,0,1,2.52-1.72c1.44-.67,2.87-.93,7.17-.49,2.91.33,2.91.28,2.91.24a.79.79,0,0,0-.23.09s0,.12.05.19S99.38,69.16,96.53,68.74ZM90.9,76.37a3.63,3.63,0,0,0,3.37-1.45A3,3,0,0,0,94.85,73c0-.65-.49-.85-.78-1.23A.76.76,0,0,0,93,71.55,5.94,5.94,0,0,0,92,72c-.51.37.43.72.08,1.15-.08.1,0,.31,0,.46a.83.83,0,0,1-.45.89,1.32,1.32,0,0,1-1.67-.1c-.24-.19-.42-.45-.66-.64a.77.77,0,0,0-1.16.23,1.44,1.44,0,0,0,.56,1.77A3,3,0,0,0,90.9,76.37Zm2.95-7.49a15.18,15.18,0,0,0-2.86.44,8.54,8.54,0,0,0-4.14,2.58,5.1,5.1,0,0,0-1.27,2.84,1.41,1.41,0,0,0,.15.4,1.66,1.66,0,0,0,.32-.33,6.9,6.9,0,0,1,3.48-3,32.15,32.15,0,0,1,3.93-1.26,12.16,12.16,0,0,0,2.68-.93.82.82,0,0,0,.2-.17,1.19,1.19,0,0,0-.25-.13Zm3,1.64c-.37.07-1,.21-1.61.3-.46.07-.48.27-.24.59a2.8,2.8,0,0,1,.5,1.8,7.41,7.41,0,0,0,.15,1.31,6.39,6.39,0,0,0,1-1c.49-.82.9-1.68,1.31-2.54.13-.26,0-.49-.34-.47Zm-9.14,6.2.58-.09A3.48,3.48,0,0,0,88,76.2a5.16,5.16,0,0,1-.58-.83c-.16-.36-.25-.15-.38,0l-.33.32c-.34.38-.32.47.14.69Z"/><path d="M62,73.91c-1.11,0-2.14.06-3.16,0a3.36,3.36,0,0,0-2.46.74,4.75,4.75,0,0,0-2,2.56,13.15,13.15,0,0,0-.61,3,1.21,1.21,0,0,1-1.31,1.13.76.76,0,0,1-.83-.82,13.3,13.3,0,0,1,.25-2.81,7.72,7.72,0,0,1,.79-2.46c1-1.57,2.15-3,4.19-3.15a3,3,0,0,1,2-.3c2,0,4,0,6,0a13.05,13.05,0,0,0,2.79-.33,4.87,4.87,0,0,0,1.62-.89,1.53,1.53,0,0,1,.8-.33c.57-.06.93.08,1.11.65a1.57,1.57,0,0,1-.42,1.53,13.28,13.28,0,0,1-3.49,1.25A26.87,26.87,0,0,1,62,73.91Z"/><path d="M91.92,111.17a16.22,16.22,0,0,1-5.88-.91c-.14,0-.31,0-.41-.11a1.88,1.88,0,0,1-.28-.43c.19,0,.16-.45.55-.24a3.53,3.53,0,0,0,1.5.45c.8,0,1.5.48,2.34.35s1.49.43,2.33.31c2.61-.35,4.33-.57,6.35-2.87a4,4,0,0,0,1.32-3.45.88.88,0,0,0-.21-.52c-.53-.42-1.1-.79-1.65-1.19-.39-.29-.69-.41-1.15,0s-1.06.43-1.52.75c-.31.2-.46.62-.7.92s-.6.75.21.88c.12,0,.25.19.32.32a.48.48,0,0,1,0,.4c-.06.09-.34.17-.37.13-.27-.32-.73-.17-.95-.33-.91-.68-2-.59-3-.84a3.11,3.11,0,0,0-3,.75c-.12.13-.39.11-.51.24s-.29.11-.45,0-.23-.25,0-.45a3.66,3.66,0,0,1,2.75-1.16,8.82,8.82,0,0,1,3,.25,1.11,1.11,0,0,0,1.55-.69,3.44,3.44,0,0,1,2.1-1.86c.9-.21.88-.72.94-1.44a2.09,2.09,0,0,0-.93-1.94.68.68,0,0,0-.39-.17c-1,0-2-.21-2.92.35-.58.35-1.09.78-1,1.55,0,.51-.2.53-.62.57-.78.08-1.63-.35-2.34.29a4.57,4.57,0,0,0-3.53,2.91,4.87,4.87,0,0,1-.53.86c-.14.2,0,.73-.5.51-.15-.08-.24-.55-.17-.79a4.74,4.74,0,0,1,.57-1.15,6.37,6.37,0,0,1,4.47-3.25c.47-.09.87-.45,1.41-.35.17,0,.47-.22.57-.41a2.6,2.6,0,0,1,2.51-1.72c.89-.78,1.77,0,2.65.09a1.43,1.43,0,0,1,1.2,1.12,5.9,5.9,0,0,1,.46,2.27c-.05.37.1.45.48.55a3.07,3.07,0,0,1,2.13,4A7.39,7.39,0,0,1,96.87,110,8,8,0,0,1,91.92,111.17Z"/><path d="M93.41,58.19a16.14,16.14,0,0,1,1.84,0,1.52,1.52,0,0,1,1.41.87,1.27,1.27,0,0,1-1.17,1.57,25.44,25.44,0,0,1-2.62,0A4.21,4.21,0,0,0,89,62.72a15,15,0,0,1-6.28,4.94,2.21,2.21,0,0,1-1.2.06.76.76,0,0,1-.53-.47A2.47,2.47,0,0,1,81,66c.11-.31.5-.38.86-.49a6.2,6.2,0,0,0,2.59-1.5,17.12,17.12,0,0,0,2.78-3,11.51,11.51,0,0,1,2-2.09,7.5,7.5,0,0,1,2.6-.78Z"/><path d="M89.29,88.88a4.54,4.54,0,0,1-2.85,4.43c-.67.36-1.39.63-2,1a1.72,1.72,0,0,1-1,.18.39.39,0,0,1-.29-.24.43.43,0,0,1,.17-.36,2.71,2.71,0,0,1,.79-.31,8.47,8.47,0,0,0,2.77-1.46,3.62,3.62,0,0,0,1.43-2.46,3.35,3.35,0,0,0-.43-1.94,13.07,13.07,0,0,0-2.24-3.54,62.86,62.86,0,0,1-4.78-6,13.6,13.6,0,0,1-1.1-2.15c-.06-.15.13-.42.2-.63.17.09.39.13.5.27a3.26,3.26,0,0,1,.51.86,14.66,14.66,0,0,0,2.45,3.9c.7,1,1.59,1.79,2.36,2.71s1.78,2.12,2.6,3.23A3.24,3.24,0,0,1,89.29,88.88Z"/><path d="M72.72,109c-.46,0-.92,0-1.38,0-.22,0-.53.13-.55-.29s.36-.23.51-.37a1.72,1.72,0,0,1,1.72-.21,22.57,22.57,0,0,1,2.38.53c.42.18.73.24,1,.72s.56,1.37,1.41,1.55c.06,0,.09.26.09.39s-.16.15-.23.14a1.34,1.34,0,0,1-.68-.17,4.57,4.57,0,0,1-.62-.81,2.9,2.9,0,0,0-2.7-1.48A6.91,6.91,0,0,1,72.72,109Z"/><path class="cls-5" d="M64,86.85a2.9,2.9,0,0,1-2.88-1.19c-.06-.08-.11-.27-.06-.32a3.94,3.94,0,0,1,.65-.64c.07,0,.28,0,.4.11a2.5,2.5,0,0,1,.33.32c1,.88,1.09.91,1.84.48.95-.53,1.18-1,.84-2.06-.1-.32-.07-.45.12-.54a14.46,14.46,0,0,1,1.57-.66c1-.34,1.56,0,1.47,1a4.77,4.77,0,0,1-.71,2.14A3.54,3.54,0,0,1,66,86.8,6,6,0,0,1,64,86.85Z"/><path class="cls-6" d="M72.32,80.85c-.08.05-.16.14-.25.14-.61,0-1.23,0-1.84,0a18.6,18.6,0,0,0-6.43,1.2c-1.17.42-2.26,1-3.44,1.37a4.15,4.15,0,0,1-.69.19c-.05,0-.2-.2-.19-.21a9.4,9.4,0,0,1,1.86-1.82c1.59-.89,3.22-1.8,5.16-1.65h.16c1.86-.21,3.63.37,5.44.62C72.18,80.7,72.25,80.79,72.32,80.85Z"/><path class="cls-7" d="M70.33,81.92c.15,0,.3,0,.46,0,.49,0,1.2-.12,1.44.14.43.48-.14,1.1-.31,1.61-.65,1.89-2.21,2.84-4,3.48a6.41,6.41,0,0,1-.94.3,1.31,1.31,0,0,1-.43-.06,1.51,1.51,0,0,0,.36-.24c.68-.77,1.64-1.28,1.88-2.43a4.64,4.64,0,0,0,0-2.48c-.1-.28-.09-.32.17-.32C69.41,81.91,69.87,81.92,70.33,81.92Z"/><path class="cls-7" d="M61.8,87.75c-.87-.17-2-.36-3-.61-.22,0-.39-.29-.58-.44a4.48,4.48,0,0,0,.52-.16c.44-.2.89-.62,1.28-.56s.74.71,1.18.83.74.91,1.43.66c0,0,.11.11.16.18s-.06.1-.1.1C62.44,87.76,62.24,87.75,61.8,87.75Z"/><path class="cls-5" d="M90.9,76.37a3,3,0,0,1-2.23-.61A1.44,1.44,0,0,1,88.11,74a.77.77,0,0,1,1.16-.23c.24.19.42.45.66.64a1.32,1.32,0,0,0,1.67.1.83.83,0,0,0,.45-.89c0-.15-.07-.36,0-.46.35-.43-.59-.78-.08-1.15a5.94,5.94,0,0,1,1-.45.76.76,0,0,1,1.06.22c.29.38.79.58.78,1.23a3,3,0,0,1-.58,1.92A3.63,3.63,0,0,1,90.9,76.37Z"/><path class="cls-6" d="M93.85,68.88l2.24.41a1.19,1.19,0,0,1,.25.13.82.82,0,0,1-.2.17,12.16,12.16,0,0,1-2.68.93,32.15,32.15,0,0,0-3.93,1.26,6.9,6.9,0,0,0-3.48,3,1.66,1.66,0,0,1-.32.33,1.41,1.41,0,0,1-.15-.4,5.1,5.1,0,0,1,1.27-2.84A8.54,8.54,0,0,1,91,69.32,15.18,15.18,0,0,1,93.85,68.88Z"/><path class="cls-7" d="M96.8,70.52h.73c.36,0,.47.21.34.47-.41.86-.82,1.72-1.31,2.54a6.39,6.39,0,0,1-1,1,7.41,7.41,0,0,1-.15-1.31,2.8,2.8,0,0,0-.5-1.8c-.24-.32-.22-.52.24-.59C95.82,70.73,96.43,70.59,96.8,70.52Z"/><path class="cls-7" d="M87.66,76.72l-.79-.35c-.46-.22-.48-.31-.14-.69l.33-.32c.13-.14.22-.35.38,0a5.16,5.16,0,0,0,.58.83,3.48,3.48,0,0,1,.22.43Z"/><path class="cls-7" d="M99.44,69.12l-.18.14c0-.07-.07-.17-.05-.19a.79.79,0,0,1,.23-.09Z"/><circle class="cls-8" cx="106.11" cy="164.74" r="2.69"/></svg>
