<svg id="Layer_1" data-name="Layer 1" xmlns="http://www.w3.org/2000/svg" viewBox="0 0 191.24 241.39"><defs><style>.cls-1{fill:#ac8370;stroke-width:4px;}.cls-1,.cls-2,.cls-3{stroke:#000;stroke-miterlimit:10;}.cls-2,.cls-5{fill:#fff;}.cls-2,.cls-3{stroke-width:2px;}.cls-3{fill:#9c7a52;}.cls-4{fill:#6c6d70;}</style></defs><title>stormhoved-01</title><path class="cls-1" d="M23.28,112.72s7.33,30,9.33,31.34c0,0,13,57.66,18.33,60,0,0,13.34,17.66,37,21,0,0,10.34,8,21.34,3.66,0,0,9,3,20.66-8.66,0,0,33.34-21.67,32.67-33.67,0,0,2.33-56.67-1.67-60.33,0,0,1-33.34-1-37L122.28,46.72,82.94,40.06l-27.66,9-23.67,23Z"/><path class="cls-1" d="M41.06,181.5c-8.21,6.44-14.78-5.11-14.78-5.11-10-3.33-13-28.33-13-28.33.33-20,16.16-9.06,16.16-9.06Z"/><path class="cls-1" d="M165.35,159.6c9.85,3.46,12.36-9.59,12.36-9.59,8.4-6.37,3.2-31,3.2-31-6.74-18.83-18.21-3.37-18.21-3.37Z"/><path class="cls-2" d="M148.22,127.39c-25.14-5.69-37.42,7.53-37.42,7.53s-1.34,3.14,3,4.8c0,0,20.32,9.66,33.17-7C146.94,132.73,151.16,128.06,148.22,127.39Z"/><path class="cls-3" d="M120.21,129.2l14.73-3s1.89,8.28-5.11,9.6C129.83,135.8,121.73,137.86,120.21,129.2Z"/><path d="M111.88,112.37c1.06-1.43,3.9-1.69,5.47-2.32a21.19,21.19,0,0,1,8-1.94c5.1-.14,12.15-.47,16.69,2.06,2.81,1.56,5.34-2.75,2.52-4.32-6-3.36-15.25-3.31-22-2.65-3.3.32-6.13,1.84-9.22,2.93-2.51.9-4.19,1.53-5.81,3.71-1.92,2.59,2.42,5.08,4.32,2.53Z"/><path d="M111.34,107.45c-2.49,3.78,6.14-.44,4.86,0a20,20,0,0,1,5.18-1.06,50.48,50.48,0,0,1,11.17.8c3.15.46,4.51-4.36,1.33-4.82-7.92-1.15-19.67-2.8-25.65,4.23-1.59,1.87-2,4.7.39,6.2,2.88,1.85,5.53-.56,7-2.85,1.77-2.69-2.56-5.2-4.32-2.52Z"/><path d="M128.28,132.56c3.21,0,3.22-5,0-5s-3.23,5,0,5Z"/><path class="cls-2" d="M48.89,145.88c21.78-13.78,37.78-5.44,37.78-5.44S89,143,85.48,146c0,0-15.91,15.91-33.6,4.52C51.88,150.48,46.34,147.49,48.89,145.88Z"/><path class="cls-3" d="M76.18,138l-15.57,2.2s1,8.82,8.4,7.67C69,147.88,77.72,147.08,76.18,138Z"/><path d="M81,115.48c-2.45-1.64-4.73-1.26-7.52-1.23-3.77,0-6.45-.37-10.14.75-5.93,1.79-14,4.35-18.06,9.21-2.06,2.44,1.46,6,3.54,3.53,3.27-3.88,9.53-5.7,14.16-7.34a20.65,20.65,0,0,1,7.57-1.32c2.11,0,6.11-.5,7.93.72,2.68,1.79,5.18-2.54,2.52-4.32Z"/><path d="M74.09,118.81c5.16,3.9,11.45-2.17,5.71-5.79-7.74-4.89-18.67.72-25.6,4.39-2.85,1.5-.33,5.82,2.52,4.31a56.6,56.6,0,0,1,9.45-4.29,21.23,21.23,0,0,1,5.18-1h1.7q3.4,1.81,3.56-1.91c-2.57-1.94-5.06,2.4-2.52,4.32Z"/><path d="M68.57,144.21c3.22,0,3.22-5,0-5s-3.22,5,0,5Z"/><path d="M87.74,167.07c-1.59,2.45-2.9,6.4.56,8,1.49.71,3.55,0,5.08.43,1.27.32,2.43,1.19,3.67,1.6a10.79,10.79,0,0,0,6.14.27c2.22-.56,3.56-1.75,5.26-3.14,2.1-1.72,4-1.25,6.18-2.46,3.24-1.79,2.87-5.56.44-7.82-.59-.54-1.48.34-.89.89q.51,6.24-3.35,6.31c-.25,0-.49,0-.73.06a10.89,10.89,0,0,1-1,.53c-2.55,1.6-3.35,3.9-6.79,4.49-3,.51-5.21-.75-8-1.69-.68-.24-1.4-.3-2.07-.52l-1.29,0q-4.86-3.32-2.15-6.37c.44-.68-.64-1.31-1.08-.64Z"/><path d="M104.2,132.15c1.86,2.9,3.88,6,4.58,9.39.75,3.63-.48,7.19-.07,10.83.09.79,1.34.8,1.25,0-.42-3.74.84-7.44,0-11.16-.77-3.54-2.78-6.68-4.71-9.69-.43-.67-1.51-.05-1.08.63Z"/><path d="M20.8,142.93a19.94,19.94,0,0,1,6.9,4.51,16.6,16.6,0,0,0,4.66,3.68c.73.33,1.36-.75.63-1.08-2.47-1.13-4-3.33-6.07-5a21,21,0,0,0-5.79-3.28c-.74-.3-1.07.91-.33,1.2Z"/><path d="M30.69,170.22a9.29,9.29,0,0,0,8.91,6.36.63.63,0,0,0,0-1.25,8,8,0,0,1-7.71-5.44c-.26-.76-1.46-.44-1.2.33Z"/><path d="M28.1,162.27a24.82,24.82,0,0,1-.43-15,.63.63,0,0,0-1.21-.33,26.11,26.11,0,0,0,.43,15.67c.26.75,1.47.43,1.21-.33Z"/><path d="M171,118.24a8.87,8.87,0,0,0-8.08,10.6c.14.8,1.35.46,1.21-.33a7.59,7.59,0,0,1,6.87-9c.79-.08.8-1.33,0-1.25Z"/><path d="M163.36,124.81a13.25,13.25,0,0,1,6.48,10.58c0,.8,1.3.81,1.25,0a14.53,14.53,0,0,0-7.1-11.66.63.63,0,0,0-.63,1.08Z"/><path d="M165.05,152.84a11.19,11.19,0,0,0,5.82-8c.14-.79-1.06-1.13-1.2-.33a10,10,0,0,1-5.25,7.2c-.71.38-.08,1.46.63,1.08Z"/><path d="M84.12,201.65c5.54-3.89,12-4.27,18.6-4.24,6.73,0,13.48.2,20.21.3a1.25,1.25,0,0,0,0-2.5c-7.77-.12-15.59-.49-23.36-.29-6,.16-11.73,1.07-16.71,4.57-1.31.92-.06,3.09,1.26,2.16Z"/><path d="M88.92,207.35a40,40,0,0,0,20-.37,1.25,1.25,0,0,0-.67-2.41,37.26,37.26,0,0,1-18.7.37c-1.57-.37-2.24,2-.67,2.41Z"/><path d="M83.62,194.44c-2,3.43-3.68,7.21-1.93,11.08.66,1.46,2.82.19,2.16-1.26-1.31-2.9.5-6.07,1.93-8.56a1.25,1.25,0,0,0-2.16-1.26Z"/><path d="M122.67,191.41a27.18,27.18,0,0,1,1.38,7c.1,1.6,2.6,1.61,2.5,0a29.61,29.61,0,0,0-1.47-7.64c-.5-1.52-2.92-.87-2.41.66Z"/><path d="M107.13,221.73a16.92,16.92,0,0,0,.54,7.35c.47,1.53,2.88.88,2.41-.67a13.9,13.9,0,0,1-.54-6c.21-1.58-2.19-2.26-2.41-.67Z"/><path d="M62,21.15a20.9,20.9,0,0,1,0-3.55c.71-3.84,3.5-5.58,7-6.51,1.07-.28,2.16-.46,3.25-.67,4.67-.94,8.5.78,11.88,3.8a2.45,2.45,0,0,0,2.48.72,81.32,81.32,0,0,1,18.09-1.82,62.66,62.66,0,0,1,31,8.21,9.29,9.29,0,0,0,3.5,1.29c4.69.67,8.05,3.5,10.84,7.11,3.65,4.74,6,10.18,7.89,15.79a142.83,142.83,0,0,1,5.81,24c.68,4.22,1.2,8.46,1.83,12.69.33,2.2-.71,3.79-2.22,5.12a8.69,8.69,0,0,1-6.95,2c-3.25-.37-6.46-1.06-9.7-1.48-5.28-.68-10.58-1.31-15.88-1.86a176.52,176.52,0,0,0-21.08-.57,87.86,87.86,0,0,0-12.42,1.36c-6.09,1-12.16,2.16-18.27,3C61.26,92.28,45,98.76,29.8,108.2a40.65,40.65,0,0,1-4.45,2.71c-4.36,2-8.41.7-11-3.33a24.89,24.89,0,0,1-3.28-9A104,104,0,0,1,9.71,75.2c.1-2.85.2-5.7.37-8.55.16-2.59.4-5.16.65-7.74a5,5,0,0,1,.5-1.48,47.68,47.68,0,0,1,12-16c8.62-7.73,18.72-12.92,29.44-17,2.66-1,5.37-1.87,8.06-2.81Zm74.85,5.05-.09.05.14-.05a4.24,4.24,0,0,0,.69,1.05,24,24,0,0,1,7,10.24c2.42,6.7,4.88,13.39,7,20.18a78.69,78.69,0,0,1,3.68,21.15c.07,2.16,0,4.32,0,6.48a6.36,6.36,0,0,0,4.9-.39,2.53,2.53,0,0,0,1.58-3.09c-.8-5.32-1.51-10.66-2.46-15.95a117.51,117.51,0,0,0-6.07-22.26,42.89,42.89,0,0,0-6.86-12.42C143.85,28.25,140.88,26.2,136.84,26.2Zm16,58.75a7.1,7.1,0,0,0,.09-.8,76.84,76.84,0,0,0-1.45-16.71c-1.88-9.84-5.36-19.2-8.84-28.55a21.16,21.16,0,0,0-6.54-9.58c-3.87-3-7.83-5.94-11.77-8.87a5.53,5.53,0,0,0-1.58-.72,62.37,62.37,0,0,0-17.62-2.85,84.63,84.63,0,0,0-27.42,4.34,9.43,9.43,0,0,0-1,.45c3.92,7.91,5.58,16.42,7.39,24.73,2.78-.06,5.36-.18,7.94-.17a26.78,26.78,0,0,1,12.65,3.1,24.56,24.56,0,0,1,12.06,14.89c1.79,5.6,3.49,11.27,3.49,17.38A216.45,216.45,0,0,1,152.82,85Zm-96.89,6.5c-.35-2.66-.75-5.1-1-7.56a57.19,57.19,0,0,1,.14-14.38C57,58.28,63.35,51,74.32,47.91c2.32-.66,4.74-.95,7.26-1.43-1.73-8.35-3.42-16.7-7.43-24.39-.55.08-1,.1-1.38.2A137.32,137.32,0,0,0,47.12,30.8,82.19,82.19,0,0,0,25.27,44.69c-3.19,2.9-3.29,2.88-3.21,7.14.16,8.66.33,17.33.66,26,.16,4.32.51,8.65,1.05,12.94a24.37,24.37,0,0,0,4.9,12.2,7.58,7.58,0,0,1,.61,1A143.91,143.91,0,0,1,55.93,91.45Zm57.92-23.83A24.72,24.72,0,0,0,107,55.52c-4.4-4.07-9.81-5.5-15.6-5.6-2.74-.05-5.48.42-8.22.47a30.36,30.36,0,0,0-8.74,1.39c-6.41,2-11.31,5.92-13.86,12.29a34.25,34.25,0,0,0-1.8,6.71,16.12,16.12,0,0,0-.25,5.86A117.93,117.93,0,0,1,113.85,67.62ZM101.6,82.14c.16-1.18.42-2.42.49-3.68a13.79,13.79,0,0,0-.85-6.38,1.36,1.36,0,0,0-1.54-1c-1.9.15-3.8.2-5.69.39a114.51,114.51,0,0,0-26.26,5.68c-3.07,1.06-6.08,2.33-9.15,3.51a40,40,0,0,0,.92,8.71ZM19.69,51.33l-.38,0a31.31,31.31,0,0,0-4.21,6.85A8.94,8.94,0,0,0,14.29,61a191.3,191.3,0,0,0-.83,24.53,64.88,64.88,0,0,0,1.73,14,26.61,26.61,0,0,0,2.29,5.86c1.46,2.7,3.69,3.33,6.44,2a36.23,36.23,0,0,0,3.36-2c-1-1.51-1.88-2.85-2.66-4.27a34,34,0,0,1-3.7-14.31c-.55-8.85-.87-17.72-1.21-26.58C19.59,57.23,19.69,54.28,19.69,51.33Zm96.75,29.2a32.75,32.75,0,0,0-1.68-9.1l-9.6-.46c.25,2,.6,3.66.67,5.39s-.12,3.45-.2,5.3ZM66.13,21.21l15.56-4a11.39,11.39,0,0,0-4.89-2.94c-2.91-.85-5.65.14-8.31,1.05S65.11,18.3,66.13,21.21Z"/><path class="cls-4" d="M152.82,85a216.45,216.45,0,0,0-32.62-3.36c0-6.11-1.7-11.78-3.49-17.38a24.56,24.56,0,0,0-12.06-14.89A26.78,26.78,0,0,0,92,46.22c-2.58,0-5.16.11-7.94.17-1.81-8.31-3.47-16.82-7.39-24.73a9.43,9.43,0,0,1,1-.45,84.63,84.63,0,0,1,27.42-4.34,62.37,62.37,0,0,1,17.62,2.85,5.53,5.53,0,0,1,1.58.72c3.94,2.93,7.9,5.84,11.77,8.87a21.16,21.16,0,0,1,6.54,9.58c3.48,9.35,7,18.71,8.84,28.55a76.84,76.84,0,0,1,1.45,16.71A7.1,7.1,0,0,1,152.82,85ZM109.67,28.39a12,12,0,0,0,1.81-.46c.93-.39,1.21-1,.93-1.71s-.78-.9-1.79-.57c-1.52.5-2.41.11-3-1.32-.43-1-.88-1.34-1.56-1.07s-.92.91-.66,1.86A4.8,4.8,0,0,0,109.67,28.39Z"/><path class="cls-4" d="M55.93,91.45A143.91,143.91,0,0,0,29.28,104a7.58,7.58,0,0,0-.61-1,24.37,24.37,0,0,1-4.9-12.2c-.54-4.29-.89-8.62-1.05-12.94-.33-8.66-.5-17.33-.66-26-.08-4.26,0-4.24,3.21-7.14A82.19,82.19,0,0,1,47.12,30.8a137.32,137.32,0,0,1,25.65-8.51c.41-.1.83-.12,1.38-.2,4,7.69,5.7,16,7.43,24.39-2.52.48-4.94.77-7.26,1.43C63.35,51,57,58.28,55.11,69.51A57.19,57.19,0,0,0,55,83.89C55.18,86.35,55.58,88.79,55.93,91.45ZM47.18,35.89c-1.22,0-1.7.28-1.74,1.09s.45,1.13,1.12,1.31c2.62.7,5.88-1.86,5.82-4.55,0-.67-.26-1.16-.93-1.26a1.11,1.11,0,0,0-1.39,1c0,.1,0,.21,0,.31A2.53,2.53,0,0,1,47.18,35.89Z"/><path class="cls-4" d="M101.6,82.14,59.52,89.37a40,40,0,0,1-.92-8.71c3.07-1.18,6.08-2.45,9.15-3.51A114.51,114.51,0,0,1,94,71.47c1.89-.19,3.79-.24,5.69-.39a1.36,1.36,0,0,1,1.54,1,13.79,13.79,0,0,1,.85,6.38C102,79.72,101.76,81,101.6,82.14Zm-5.15-6.86a1.14,1.14,0,0,0-1.17,1.2,1.07,1.07,0,0,0,1.06,1.14,1.12,1.12,0,0,0,1.24-1.11A1.14,1.14,0,0,0,96.45,75.28Zm-9.34,3a1.17,1.17,0,0,0-1.27-1.11,1.18,1.18,0,0,0-1,1.33,1.07,1.07,0,0,0,1.17,1A1.13,1.13,0,0,0,87.11,78.29Zm-9.85,2a1.15,1.15,0,1,0-2.3.11,1.07,1.07,0,0,0,1.13,1.07A1.1,1.1,0,0,0,77.26,80.25Zm-10.11,4a1.11,1.11,0,0,0,1.22-1.13A1.14,1.14,0,0,0,67.22,82,1.08,1.08,0,0,0,66.08,83,1.1,1.1,0,0,0,67.15,84.29Z"/><path class="cls-4" d="M19.69,51.33c0,3-.1,5.9,0,8.85.34,8.86.66,17.73,1.21,26.58a34,34,0,0,0,3.7,14.31c.78,1.42,1.71,2.76,2.66,4.27a36.23,36.23,0,0,1-3.36,2c-2.75,1.29-5,.66-6.44-2a26.61,26.61,0,0,1-2.29-5.86,64.88,64.88,0,0,1-1.73-14A191.3,191.3,0,0,1,14.29,61a8.94,8.94,0,0,1,.81-2.85,31.31,31.31,0,0,1,4.21-6.85Z"/><path class="cls-4" d="M136.84,26.2c4,0,7,2.05,9.48,5a42.89,42.89,0,0,1,6.86,12.42,117.51,117.51,0,0,1,6.07,22.26c.95,5.29,1.66,10.63,2.46,15.95a2.53,2.53,0,0,1-1.58,3.09,6.36,6.36,0,0,1-4.9.39c0-2.16.06-4.32,0-6.48a78.69,78.69,0,0,0-3.68-21.15c-2.12-6.79-4.58-13.48-7-20.18a24,24,0,0,0-7-10.24,4.24,4.24,0,0,1-.69-1.05Z"/><path class="cls-4" d="M116.44,80.53l-10.81,1.13c.08-1.85.27-3.58.2-5.3s-.42-3.44-.67-5.39l9.6.46A32.75,32.75,0,0,1,116.44,80.53Zm-7.61-3.86A1.1,1.1,0,0,0,110,75.44a1.09,1.09,0,0,0-1.09-1.11,1.15,1.15,0,0,0-1.21,1.16A1.1,1.1,0,0,0,108.83,76.67Z"/><path class="cls-4" d="M66.13,21.21c-1-2.91-.28-5,2.36-5.91s5.4-1.9,8.31-1.05a11.39,11.39,0,0,1,4.89,2.94Z"/><polygon class="cls-5" points="136.88 26.2 136.75 26.25 136.84 26.2 136.88 26.2"/><path d="M109.67,28.39a4.8,4.8,0,0,1-4.28-3.27c-.26-.95,0-1.58.66-1.86s1.13,0,1.56,1.07c.6,1.43,1.49,1.82,3,1.32,1-.33,1.5-.17,1.79.57s0,1.32-.93,1.71A12,12,0,0,1,109.67,28.39Z"/><path d="M47.18,35.89A2.53,2.53,0,0,0,50,33.74c0-.1,0-.21,0-.31a1.11,1.11,0,0,1,1.39-1c.67.1.92.59.93,1.26.06,2.69-3.2,5.25-5.82,4.55-.67-.18-1.16-.54-1.12-1.31S46,35.89,47.18,35.89Z"/><path d="M96.45,75.28a1.14,1.14,0,0,1,1.13,1.23,1.12,1.12,0,0,1-1.24,1.11,1.07,1.07,0,0,1-1.06-1.14A1.14,1.14,0,0,1,96.45,75.28Z"/><path d="M87.11,78.29A1.13,1.13,0,0,1,86,79.53a1.07,1.07,0,0,1-1.17-1,1.18,1.18,0,0,1,1-1.33A1.17,1.17,0,0,1,87.11,78.29Z"/><path d="M77.26,80.25a1.1,1.1,0,0,1-1.17,1.18A1.07,1.07,0,0,1,75,80.36a1.15,1.15,0,1,1,2.3-.11Z"/><path d="M67.15,84.29A1.1,1.1,0,0,1,66.08,83,1.08,1.08,0,0,1,67.22,82a1.14,1.14,0,0,1,1.15,1.21A1.11,1.11,0,0,1,67.15,84.29Z"/><path d="M108.83,76.67a1.1,1.1,0,0,1-1.17-1.18,1.15,1.15,0,0,1,1.21-1.16A1.09,1.09,0,0,1,110,75.44,1.1,1.1,0,0,1,108.83,76.67Z"/></svg>
